{
	"asset":{
		"generator":"Khronos glTF Blender I/O v3.5.30",
		"version":"2.0"
	},
	"extensionsUsed":[
		"KHR_materials_specular",
		"KHR_materials_ior"
	],
	"scene":0,
	"scenes":[
		{
			"name":"Scene",
			"nodes":[
				0
			]
		}
	],
	"nodes":[
		{
			"mesh":0,
			"name":"TQ_ARD-node.001"
		}
	],
	"materials":[
		{
			"doubleSided":true,
			"extensions":{
				"KHR_materials_specular":{
					"specularColorFactor":[
						0,
						0,
						0
					]
				},
				"KHR_materials_ior":{
					"ior":0
				}
			},
			"name":"back-dil",
			"pbrMetallicRoughness":{
				"baseColorTexture":{
					"index":0
				},
				"metallicFactor":0,
				"roughnessFactor":0.5
			}
		},
		{
			"doubleSided":true,
			"extensions":{
				"KHR_materials_specular":{
					"specularColorFactor":[
						0,
						0,
						0
					]
				},
				"KHR_materials_ior":{
					"ior":0
				}
			},
			"name":"TQ_ARD_back.001",
			"pbrMetallicRoughness":{
				"baseColorFactor":[
					0.6469210386276245,
					0.45945847034454346,
					0.2994175851345062,
					1
				],
				"metallicFactor":0,
				"roughnessFactor":0.5
			}
		},
		{
			"doubleSided":true,
			"extensions":{
				"KHR_materials_specular":{
					"specularColorFactor":[
						0,
						0,
						0
					]
				},
				"KHR_materials_ior":{
					"ior":0
				}
			},
			"name":"TQ_ARD_edge.001",
			"pbrMetallicRoughness":{
				"baseColorTexture":{
					"index":1
				},
				"metallicFactor":0,
				"roughnessFactor":0.5
			}
		}
	],
	"meshes":[
		{
			"name":"TQ_ARD-geom.001",
			"primitives":[
				{
					"attributes":{
						"POSITION":0,
						"TEXCOORD_0":1,
						"NORMAL":2
					},
					"indices":3,
					"material":0
				},
				{
					"attributes":{
						"POSITION":4,
						"TEXCOORD_0":5,
						"NORMAL":6
					},
					"indices":7,
					"material":1
				},
				{
					"attributes":{
						"POSITION":8,
						"TEXCOORD_0":9,
						"NORMAL":10
					},
					"indices":11,
					"material":2
				}
			]
		}
	],
	"textures":[
		{
			"sampler":0,
			"source":0
		},
		{
			"sampler":0,
			"source":1
		}
	],
	"images":[
		{
			"bufferView":4,
			"mimeType":"image/jpeg",
			"name":"3"
		},
		{
			"bufferView":13,
			"mimeType":"image/png",
			"name":"TQ_ARD-I1"
		}
	],
	"accessors":[
		{
			"bufferView":0,
			"componentType":5126,
			"count":941,
			"max":[
				0.09741129726171494,
				0.200443297624588,
				0.11520379036664963
			],
			"min":[
				-0.09417540580034256,
				0.0024054497480392456,
				-0.07775267958641052
			],
			"type":"VEC3"
		},
		{
			"bufferView":1,
			"componentType":5126,
			"count":941,
			"type":"VEC2"
		},
		{
			"bufferView":2,
			"componentType":5126,
			"count":941,
			"type":"VEC3"
		},
		{
			"bufferView":3,
			"componentType":5123,
			"count":2964,
			"type":"SCALAR"
		},
		{
			"bufferView":5,
			"componentType":5126,
			"count":893,
			"max":[
				0.09661752730607986,
				0.19891729950904846,
				0.11440723389387131
			],
			"min":[
				-0.09338158369064331,
				0.0033640116453170776,
				-0.07686040550470352
			],
			"type":"VEC3"
		},
		{
			"bufferView":6,
			"componentType":5126,
			"count":893,
			"type":"VEC2"
		},
		{
			"bufferView":7,
			"componentType":5126,
			"count":893,
			"type":"VEC3"
		},
		{
			"bufferView":8,
			"componentType":5123,
			"count":2964,
			"type":"SCALAR"
		},
		{
			"bufferView":9,
			"componentType":5126,
			"count":1577,
			"max":[
				0.09741125255823135,
				0.200443297624588,
				0.11520379036664963
			],
			"min":[
				-0.09371032565832138,
				0.002405688166618347,
				-0.07775267958641052
			],
			"type":"VEC3"
		},
		{
			"bufferView":10,
			"componentType":5126,
			"count":1577,
			"type":"VEC2"
		},
		{
			"bufferView":11,
			"componentType":5126,
			"count":1577,
			"type":"VEC3"
		},
		{
			"bufferView":12,
			"componentType":5123,
			"count":3150,
			"type":"SCALAR"
		}
	],
	"bufferViews":[
		{
			"buffer":0,
			"byteLength":11292,
			"byteOffset":0,
			"target":34962
		},
		{
			"buffer":0,
			"byteLength":7528,
			"byteOffset":11292,
			"target":34962
		},
		{
			"buffer":0,
			"byteLength":11292,
			"byteOffset":18820,
			"target":34962
		},
		{
			"buffer":0,
			"byteLength":5928,
			"byteOffset":30112,
			"target":34963
		},
		{
			"buffer":0,
			"byteLength":742080,
			"byteOffset":36040
		},
		{
			"buffer":0,
			"byteLength":10716,
			"byteOffset":778120,
			"target":34962
		},
		{
			"buffer":0,
			"byteLength":7144,
			"byteOffset":788836,
			"target":34962
		},
		{
			"buffer":0,
			"byteLength":10716,
			"byteOffset":795980,
			"target":34962
		},
		{
			"buffer":0,
			"byteLength":5928,
			"byteOffset":806696,
			"target":34963
		},
		{
			"buffer":0,
			"byteLength":18924,
			"byteOffset":812624,
			"target":34962
		},
		{
			"buffer":0,
			"byteLength":12616,
			"byteOffset":831548,
			"target":34962
		},
		{
			"buffer":0,
			"byteLength":18924,
			"byteOffset":844164,
			"target":34962
		},
		{
			"buffer":0,
			"byteLength":6300,
			"byteOffset":863088,
			"target":34963
		},
		{
			"buffer":0,
			"byteLength":767,
			"byteOffset":869388
		}
	],
	"samplers":[
		{
			"magFilter":9729,
			"minFilter":9987
		}
	],
	"buffers":[
		{
			"byteLength":870156,
			"uri":"data:application/octet-stream;base64,"
		}
	]
}
